<svg width="102" height="50" viewBox="0 0 102 50" fill="none" xmlns="http://www.w3.org/2000/svg">
<g clip-path="url(#clip0_33247_51500)">
<path d="M100.968 19.3407C100.508 19.0862 100.16 19.5029 99.8379 19.7173C99.499 19.9429 99.1101 20.154 98.7701 20.3451C97.319 21.164 95.8046 21.934 94.3735 22.7318C93.6479 23.1373 92.929 23.7551 92.1757 23.9251C89.9735 24.4207 91.0979 21.424 90.2913 20.2196C89.6346 19.2396 87.839 19.6151 86.6479 19.9051C88.8446 17.3773 92.5557 15.0429 92.1757 10.1062C92.0602 8.61068 91.5813 7.35512 90.4168 6.77734H89.9768C89.0524 7.03957 88.6301 8.45845 88.2179 9.41512C86.9602 12.3396 85.5602 15.524 84.3868 18.2718C83.0201 19.1118 81.5835 20.0173 79.739 20.5962C78.9602 20.8407 77.9202 21.3529 77.6657 20.5329C77.5157 20.0485 77.9924 19.4329 77.9179 18.7118C77.839 17.9596 77.2579 17.1996 76.599 17.1418C76.0446 17.0929 75.9813 17.4596 75.4057 17.5185C75.0835 16.7951 75.0101 15.8207 74.2124 15.5718C73.6757 15.4996 72.9801 15.6373 72.5157 15.8229C70.969 16.4418 69.3846 17.7107 67.8679 18.9007C66.9057 19.6562 65.7601 20.5862 64.6646 21.4762C64.259 21.8051 63.7701 22.1207 63.4079 21.9785C62.8179 21.7473 62.9624 20.3173 62.8424 19.5285C62.6935 18.544 62.449 17.9451 61.8368 17.5807C59.7379 17.534 58.9435 18.7896 57.5657 19.4651C57.8046 17.3496 55.4346 17.9829 54.2368 18.5229C52.529 19.2929 51.2446 20.2085 49.7146 21.0351C48.9268 21.4618 48.0546 21.9018 47.139 21.8518C46.7246 20.414 47.9435 19.0785 47.7668 17.7062C47.699 17.1773 47.3701 16.704 46.8246 16.6385C45.9879 16.5385 44.959 17.6073 44.249 18.0829C42.5457 19.2229 41.0257 20.1429 39.4124 21.2229C38.6401 21.7407 37.8124 22.6507 36.649 22.1651C36.3657 20.8185 36.9724 19.3185 36.9001 17.7685C36.4346 16.5962 34.2557 17.074 33.1313 17.3285C33.279 16.0107 32.5113 15.5485 31.2468 15.6329C30.5379 15.6807 29.949 16.0118 29.8646 16.3862C29.789 16.7229 30.1013 17.4496 29.9901 18.0196C29.7701 19.1496 27.9468 20.1885 27.0379 20.6573C26.4001 20.9862 25.7168 21.2285 24.9657 21.4107C24.3001 21.5718 23.429 21.8951 22.7046 21.4107C22.4913 20.1773 24.0979 19.3518 24.0868 18.2707C24.0746 17.1285 22.5135 16.3896 21.3235 16.9518C20.4613 16.454 19.8979 15.5696 18.6857 15.5696C17.4735 15.5696 16.3213 16.4996 15.6168 17.4607C14.9124 18.4218 13.9457 19.8251 13.599 19.904C13.1701 20.0018 12.6068 19.9585 11.7735 19.9585C11.1179 19.9585 10.3101 18.7662 10.0813 18.2073C9.87126 17.6985 8.37904 14.4118 8.37904 13.0407C8.37904 11.6696 9.06792 10.4918 10.4579 10.7962C11.4268 11.0073 11.9024 12.0129 11.9024 13.1696C11.9024 14.2507 10.9035 15.9873 11.7868 15.9873C13.0546 15.9873 14.079 13.5529 14.079 11.1729C14.079 9.21179 11.8946 7.93734 9.75015 7.91512C8.54459 7.9029 5.11237 8.87845 5.11237 12.7851C5.11237 14.9985 6.1057 17.3818 6.75237 18.8696C4.72793 18.8696 3.06237 17.9085 2.29348 17.3962C1.65126 16.9685 0.595703 16.8196 0.595703 17.7807C0.595703 19.7707 1.1457 22.4073 2.67793 23.9296C4.16904 25.4129 6.49015 26.1751 8.51126 26.3107C11.1857 26.4896 12.1735 25.2662 11.7768 22.6051C12.3668 22.6429 12.959 22.6951 13.5024 22.6496C13.5024 24.7629 14.6835 25.7607 16.6757 25.244C18.3001 24.8218 20.1346 23.5296 21.0724 22.9196C21.1546 23.5807 21.2457 24.254 21.5746 24.6151C22.3457 25.4618 24.5046 24.9573 25.6579 24.6151C28.7768 23.6885 31.5179 21.6418 32.9435 19.6529C33.2479 19.7673 33.7146 19.7207 33.8857 19.9673C34.1557 21.1573 33.4146 22.7118 33.6346 24.0496C33.9346 25.8773 36.3535 25.4162 37.9057 24.9918C40.0124 24.4151 42.3379 22.9518 43.9979 22.354C43.7357 23.0073 43.4646 24.0651 43.9346 24.6151C44.2101 24.9362 44.8601 25.1007 45.4424 25.1173C47.159 25.1696 48.8646 24.4207 50.4046 23.7351C52.0079 23.0218 53.5424 22.3085 54.8635 21.7885C54.8346 22.6618 54.3057 23.654 54.4857 24.4262C54.6268 25.0273 55.6046 25.5773 56.3079 25.494C56.8113 25.434 57.0802 25.0107 57.4379 24.614C57.7935 24.2207 58.1524 23.874 58.4435 23.5462C59.1868 22.7107 59.7213 21.8562 60.5157 21.5362C60.9813 21.9629 60.8368 22.9773 60.8924 23.8607C60.9446 24.6785 60.859 25.8107 61.3324 26.0596C61.8168 26.3162 62.489 25.9473 62.9024 25.6829C64.2501 24.8229 65.5146 23.7796 66.7335 23.2329C66.9579 24.1185 67.169 24.8129 67.739 25.2429C69.8735 26.8573 72.6413 23.7818 74.209 23.4218C73.7379 24.8573 75.1957 25.1718 76.2824 24.9918C77.0435 24.8651 77.7213 24.4562 78.4179 24.1129C79.8502 23.4051 81.7235 22.3573 82.8779 21.914C82.6135 22.8485 81.9124 23.4596 81.999 24.3007C82.0901 25.1962 83.5346 25.9707 84.3857 25.8707C85.019 25.7962 85.5535 24.7796 85.9557 24.1751C86.0979 23.9618 86.3624 23.6029 86.5846 23.2951C86.7335 23.0873 86.829 22.4929 87.4013 22.604C87.9824 22.7173 87.6601 23.8673 87.7779 24.6773C87.9624 25.9418 88.6102 26.5951 89.6624 26.8751H90.6679C91.2246 26.6007 91.8424 26.6273 92.4268 26.3729C92.819 26.2018 93.1601 25.8573 93.5568 25.6196C95.6046 24.394 97.4135 23.194 99.1468 21.7885C99.8413 21.2251 100.619 20.7185 101.095 19.9662V19.464C101.025 19.4507 100.997 19.394 100.969 19.3385L100.968 19.3407ZM88.5946 12.3062C88.9168 11.5473 89.0701 10.364 90.039 10.6107C90.7479 12.2429 89.119 13.6051 87.9035 14.0651C88.0757 13.614 88.3035 12.9918 88.5946 12.3062ZM6.69015 23.9229C5.12459 23.914 3.76793 22.0107 3.76793 20.2818C4.87348 21.0196 6.1657 21.5996 7.82126 21.7873C7.99459 22.1785 8.44459 23.9329 6.69126 23.9229H6.69015ZM19.6924 20.094C19.1701 20.7629 17.8457 21.3507 17.1801 21.3507C16.5146 21.3507 17.8379 18.2985 19.0013 18.1473C20.3535 17.9718 20.2824 19.3385 19.6924 20.094ZM72.7668 21.0996C72.2802 21.5018 71.6124 21.9107 71.0079 21.7273C70.3957 21.3262 70.6457 20.4107 70.8824 19.8429C71.3368 18.7551 72.3624 17.6518 73.8968 18.0851C74.5213 19.3207 73.6102 20.4029 72.7668 21.0996Z" fill="#ED1C24"/>
<path d="M48.3646 11.1264C47.9868 11.3764 47.4035 11.0697 47.0779 11.3019C46.5335 12.6019 46.8224 14.8441 47.769 15.4475C48.4013 15.5152 48.8735 15.2897 49.339 15.0708C49.7146 14.8941 50.2646 14.6864 50.5324 14.3175C51.0368 13.6219 50.7546 11.043 50.1546 10.6741C49.6613 10.3708 48.9168 10.7608 48.3646 11.1275V11.1264Z" fill="#ED1C24"/>
<path d="M16.9057 39.3905H14.2591L13.7513 40.7728H13.1357L15.258 35.0283H15.9157L18.0302 40.7728H17.4146L16.9069 39.3905H16.9057ZM15.5824 35.7605L14.4335 38.9072H16.7313L15.5824 35.7605Z" fill="#414142"/>
<path d="M22.3668 38.1747C22.3668 37.1669 21.818 36.6513 20.9846 36.6513C20.1513 36.6513 19.5446 37.1836 19.5446 38.2913V40.7724H18.9624V36.2269H19.5446V37.0013C19.8357 36.4358 20.4191 36.1436 21.0935 36.1436C22.1257 36.1436 22.9413 36.7758 22.9413 38.108V40.7713H22.3668V38.1736V38.1747Z" fill="#414142"/>
<path d="M34.7636 41.0452C34.7636 42.2485 34.398 42.6952 33.4136 42.6952H33.3936L33.4202 43.1174H33.438C34.7213 43.1174 35.2213 42.5297 35.2213 41.0219V36.2363H34.7636V41.0452Z" fill="#414142"/>
<path d="M60.1346 38.2735C60.1346 37.7079 59.9335 37.1757 59.5691 36.7746C59.1846 36.3523 58.6435 36.1201 58.0468 36.1201C57.4502 36.1201 56.8735 36.3612 56.4746 36.799C56.0824 37.2301 55.8657 37.8235 55.8657 38.469C55.8657 39.8079 56.8313 40.8179 58.1124 40.8179C58.7679 40.8179 59.3613 40.5746 59.7846 40.1335C59.8113 40.1068 59.8235 40.0846 59.8224 40.0657C59.8213 40.0457 59.8057 40.0201 59.7768 39.9912L59.6568 39.8801C59.6224 39.8501 59.6046 39.8446 59.5291 39.909C59.1513 40.2501 58.7091 40.4168 58.1779 40.4168C57.1757 40.4168 56.4268 39.7334 56.3135 38.7168L56.3068 38.659H59.9246C60.0913 38.659 60.1346 38.5801 60.1346 38.2723V38.2735ZM56.3091 38.2968L56.3135 38.2401C56.4035 37.2279 57.1124 36.5201 58.038 36.5201C58.9635 36.5201 59.7235 37.2612 59.7435 38.2435V38.2968H56.3091Z" fill="#414142"/>
<path d="M49.1233 36.5301C49.2967 36.5301 49.3844 36.5512 49.4622 36.569L49.4989 36.5779C49.5667 36.5946 49.5811 36.5812 49.6011 36.5468L49.7111 36.3168C49.74 36.2601 49.7289 36.2535 49.7122 36.2435C49.5911 36.1646 49.4033 36.1201 49.1978 36.1201C48.7689 36.1201 48.3955 36.329 48.1189 36.7246L48.0378 36.839L47.9867 36.3157C47.9755 36.2223 47.9178 36.2223 47.8978 36.2223H47.6644C47.6089 36.2223 47.5767 36.2557 47.5767 36.3101V40.7268C47.5767 40.759 47.6022 40.7846 47.6333 40.7846H48.0333V37.6101C48.0333 37.0046 48.5111 36.5301 49.1222 36.5301H49.1233Z" fill="#414142"/>
<path d="M64.6736 36.2236C64.658 36.2236 64.6436 36.2303 64.6325 36.2414C64.608 36.2592 64.5936 36.2781 64.5847 36.3014L63.0603 40.2681L61.5358 36.3025C61.5169 36.2514 61.4747 36.2236 61.4158 36.2236H61.1258C61.0925 36.2236 61.068 36.2314 61.0592 36.2436C61.0503 36.2559 61.0514 36.2814 61.0625 36.3125L62.8258 40.7681L62.8203 40.7814L61.8914 43.1192H62.3147C62.3569 43.1192 62.3958 43.0903 62.4125 43.0447L62.568 42.6236L64.9247 36.6681C64.9269 36.6603 64.9303 36.6525 64.9347 36.6436L65.1058 36.2236H64.6736Z" fill="#414142"/>
<path d="M46.0345 39.0616V36.2972C46.0345 36.265 46.0078 36.2383 45.9745 36.2383H45.6434C45.6111 36.2383 45.5845 36.265 45.5845 36.2972V39.0638C45.5845 39.7672 44.9811 40.3405 44.2389 40.3405C43.4967 40.3405 42.8922 39.7683 42.8922 39.0638V36.2972C42.8922 36.265 42.8656 36.2383 42.8334 36.2383H42.5022C42.47 36.2383 42.4434 36.265 42.4434 36.2972V39.0827L42.4456 39.1083C42.47 40.0361 43.2745 40.7916 44.24 40.7916C45.2056 40.7916 46.0156 40.0316 46.0345 39.0983L46.0367 39.0627L46.0345 39.0616Z" fill="#414142"/>
<path d="M54.6121 40.7728H54.1643V37.7839C54.1643 37.1206 53.6243 36.5806 52.9599 36.5806H52.4143C51.751 36.5806 51.211 37.1206 51.211 37.7839V40.7728H50.7632V37.7839C50.7632 36.8739 51.5043 36.1328 52.4143 36.1328H52.9599C53.8699 36.1328 54.611 36.8739 54.611 37.7839V40.7728H54.6121Z" fill="#414142"/>
<path d="M32.7522 40.7728H32.3044V37.7839C32.3044 37.1206 31.7644 36.5806 31.1 36.5806H30.5544C29.8911 36.5806 29.3511 37.1206 29.3511 37.7839V40.7728H28.9033V37.7839C28.9033 36.8739 29.6444 36.1328 30.5544 36.1328H31.1C32.01 36.1328 32.7511 36.8739 32.7511 37.7839V40.7728H32.7522Z" fill="#414142"/>
<path d="M27.1712 36.2354H26.7134V40.7776H27.1712V36.2354Z" fill="#414142"/>
<path d="M40.7354 36.6852C40.2265 37.1941 39.401 37.1941 38.8921 36.6852L39.0088 36.5685C39.4543 36.123 40.1754 36.123 40.6199 36.5685L40.7365 36.6852H40.7354Z" fill="#4EC3C6"/>
<path d="M40.7166 36.666C40.2077 37.1749 40.2077 38.0005 40.7166 38.5105L40.8333 38.3938C41.2777 37.9493 41.2777 37.2271 40.8333 36.7827L40.7166 36.666Z" fill="#4EC3C6"/>
<path d="M37.0656 36.6662C37.5745 37.175 37.5745 38.0006 37.0656 38.5095L36.9489 38.3928C36.5034 37.9473 36.5034 37.2261 36.9489 36.7817L37.0656 36.665V36.6662Z" fill="#EC6A57"/>
<path d="M37.0469 36.6854C37.5558 37.1942 38.3813 37.1942 38.8913 36.6854L38.7747 36.5687C38.3302 36.1242 37.608 36.1242 37.1635 36.5687L37.0469 36.6854Z" fill="#EC6A57"/>
<path d="M37.048 40.3367C37.5569 39.8279 38.3824 39.8279 38.8913 40.3367L38.7747 40.4534C38.3291 40.899 37.608 40.899 37.1635 40.4534L37.0469 40.3367H37.048Z" fill="#FAAF43"/>
<path d="M37.0657 40.3552C37.5746 39.8463 37.5746 39.0207 37.0657 38.5107L36.9491 38.6274C36.5046 39.0719 36.5046 39.7941 36.9491 40.2385L37.0657 40.3552Z" fill="#FAAF43"/>
<path d="M40.7166 40.3541C40.2077 39.8452 40.2077 39.0196 40.7166 38.5107L40.8333 38.6274C41.2788 39.073 41.2788 39.7941 40.8333 40.2385L40.7166 40.3552V40.3541Z" fill="#9FBD3B"/>
<path d="M40.7356 40.3367C40.2267 39.8279 39.4011 39.8279 38.8911 40.3367L39.0078 40.4534C39.4522 40.8979 40.1744 40.8979 40.6189 40.4534L40.7356 40.3367Z" fill="#9FBD3B"/>
<path d="M69.4855 40.7715H68.9033V36.2259H69.4855V37.0337C69.7355 36.4759 70.26 36.1426 71.0422 36.1426V36.7504H70.8844C70.1267 36.7504 69.4855 37.0915 69.4855 38.2326V40.7715Z" fill="#414142"/>
<path d="M73.881 40.8379C72.591 40.8379 71.6499 39.939 71.6499 38.499C71.6499 37.059 72.5743 36.1602 73.881 36.1602C75.1877 36.1602 76.0288 37.109 76.0288 38.2668C76.0288 38.4502 76.0288 38.5668 76.0121 38.7246H72.241C72.291 39.7902 73.0321 40.3479 73.881 40.3479C74.6555 40.3479 75.1799 39.9402 75.3466 39.3324H75.9621C75.7543 40.1902 75.021 40.839 73.881 40.839V40.8379ZM72.241 38.249H75.4377C75.4621 37.1924 74.6966 36.659 73.8566 36.659C73.0166 36.659 72.3077 37.1913 72.241 38.249Z" fill="#414142"/>
<path d="M77.2611 36.718H76.6289V36.2269H77.2611V35.0869H77.8522V36.2269H79.1011V36.718H77.8522V39.5402C77.8522 40.098 78.0434 40.2725 78.5678 40.2725H79.1V40.7725H78.4756C77.6845 40.7725 77.26 40.448 77.26 39.5402V36.718H77.2611Z" fill="#414142"/>
<path d="M81.9643 36.1602C82.8799 36.1602 83.5043 36.6513 83.7621 37.2257V36.2268H84.3443V40.7724H83.7621V39.7646C83.4955 40.3468 82.8632 40.839 81.9555 40.839C80.7155 40.839 79.791 39.9146 79.791 38.4913C79.791 37.0679 80.7155 36.1602 81.9632 36.1602H81.9643ZM82.0721 36.6679C81.1144 36.6679 80.3821 37.3335 80.3821 38.4913C80.3821 39.649 81.1144 40.3313 82.0721 40.3313C83.0299 40.3313 83.7621 39.6324 83.7621 38.5002C83.7621 37.3679 83.0044 36.669 82.0721 36.669V36.6679Z" fill="#414142"/>
<path d="M85.5435 34.9362C85.5435 34.6862 85.7346 34.5117 85.9679 34.5117C86.2012 34.5117 86.3923 34.6862 86.3923 34.9362C86.3923 35.1862 86.2012 35.3695 85.9679 35.3695C85.7346 35.3695 85.5435 35.1862 85.5435 34.9362ZM85.6768 36.2273H86.259V40.7728H85.6768V36.2273Z" fill="#414142"/>
<path d="M87.5835 34.6113H88.1657V40.7713H87.5835V34.6113Z" fill="#414142"/>
</g>
<defs>
<clipPath id="clip0_33247_51500">
<rect width="101.111" height="50" fill="white"/>
</clipPath>
</defs>
</svg>
