<svg width="21" height="12" viewBox="0 0 21 12" fill="none" xmlns="http://www.w3.org/2000/svg">
<path d="M0.954072 0.939489C1.23536 0.658282 1.61683 0.500309 2.01457 0.500309C2.41232 0.500309 2.79378 0.658282 3.07507 0.939489L10.5001 8.36449L17.9251 0.939489C18.208 0.666252 18.5869 0.51506 18.9802 0.518478C19.3735 0.521895 19.7497 0.679649 20.0278 0.957761C20.3059 1.23587 20.4637 1.61209 20.4671 2.00539C20.4705 2.39868 20.3193 2.77759 20.0461 3.06049L11.5606 11.546C11.2793 11.8272 10.8978 11.9852 10.5001 11.9852C10.1023 11.9852 9.72086 11.8272 9.43957 11.546L0.954072 3.06049C0.672866 2.7792 0.514893 2.39773 0.514893 1.99999C0.514893 1.60224 0.672866 1.22078 0.954072 0.939489Z" fill="black"/>
</svg>
