<svg width="203" height="36" viewBox="0 0 203 36" fill="none" xmlns="http://www.w3.org/2000/svg">
<path d="M66.7394 31.1572C58.8914 31.1572 53.0234 25.7572 53.0234 18.1252V18.0532C53.0234 10.7092 58.7834 4.94922 66.5954 4.94922C71.0234 4.94922 74.1554 6.31722 76.8194 8.62122L72.7154 13.5532C70.9154 12.0412 69.1154 11.1772 66.6314 11.1772C62.9954 11.1772 60.1874 14.2372 60.1874 18.0892V18.1612C60.1874 22.2292 63.0314 25.1452 67.0274 25.1452C68.7194 25.1452 70.0154 24.7852 71.0594 24.1012V21.0412H66.0914V15.9292H77.6834V27.2692C75.0194 29.4652 71.3114 31.1572 66.7394 31.1572Z" fill="#17362D"/>
<path d="M84.8828 30.6531V5.45312H105.151V11.3931H91.7948V15.2091H103.891V20.7171H91.7948V24.7131H105.331V30.6531H84.8828Z" fill="#17362D"/>
<path d="M125.527 31.1572C118.327 31.1572 112.531 25.6492 112.531 18.1252V18.0532C112.531 10.7092 118.183 4.94922 125.815 4.94922C130.963 4.94922 134.275 7.10922 136.507 10.2052L131.251 14.2732C129.811 12.4732 128.155 11.3212 125.743 11.3212C122.215 11.3212 119.731 14.3092 119.731 17.9812V18.0532C119.731 21.8332 122.215 24.7852 125.743 24.7852C128.371 24.7852 129.919 23.5612 131.431 21.7252L136.687 25.4692C134.311 28.7452 131.107 31.1572 125.527 31.1572Z" fill="#17362D"/>
<path d="M143.891 30.6531V5.45312H150.875V15.6771L159.551 5.45312H167.831L158.291 16.2891L168.155 30.6531H159.767L153.431 21.2931L150.875 24.1371V30.6531H143.891Z" fill="#17362D"/>
<path d="M188.888 31.1572C181.112 31.1572 175.352 25.3612 175.352 18.1252V18.0532C175.352 10.8172 181.184 4.94922 188.96 4.94922C196.736 4.94922 202.496 10.7452 202.496 17.9812V18.0532C202.496 25.2892 196.664 31.1572 188.888 31.1572ZM188.96 24.8572C192.812 24.8572 195.368 21.7612 195.368 18.1252V18.0532C195.368 14.4172 192.74 11.2492 188.888 11.2492C185.072 11.2492 182.516 14.3452 182.516 17.9812V18.0532C182.516 21.6892 185.144 24.8572 188.96 24.8572Z" fill="#17362D"/>
<path d="M16.5714 28.8C18.5596 28.8 20.1714 30.4118 20.1714 32.4C20.1714 34.3882 18.5596 36 16.5714 36C14.5831 36 12.9714 34.3882 12.9714 32.4C12.9714 30.4118 14.5831 28.8 16.5714 28.8Z" fill="#15CE4E"/>
<path d="M16.5714 14.4C18.5596 14.4 20.1714 16.0118 20.1714 18C20.1714 19.9882 18.5596 21.6 16.5714 21.6C14.5831 21.6 12.9714 19.9882 12.9714 18C12.9714 16.0118 14.5831 14.4 16.5714 14.4Z" fill="#15CE4E"/>
<path d="M16.5714 0C18.5596 -8.69081e-08 20.1714 1.61177 20.1714 3.6C20.1714 5.58823 18.5596 7.2 16.5714 7.2C14.5831 7.2 12.9714 5.58823 12.9714 3.6C12.9714 1.61178 14.5831 8.69081e-08 16.5714 0Z" fill="#15CE4E"/>
<path d="M12.9714 18C14.1532 13.2727 14.1532 8.32726 12.9714 3.6L20.1714 3.6C18.9895 8.32726 18.9895 13.2727 20.1714 18H12.9714Z" fill="#15CE4E"/>
<path d="M7.21829 23.4C8.21241 25.1218 7.62245 27.3236 5.9006 28.3177C4.17875 29.3118 1.97702 28.7218 0.98291 27C-0.0112029 25.2781 0.578748 23.0764 2.3006 22.0823C4.02245 21.0882 6.22418 21.6781 7.21829 23.4Z" fill="#15CE4E"/>
<path d="M19.6891 16.2C20.6832 17.9218 20.0932 20.1236 18.3714 21.1177C16.6495 22.1118 14.4478 21.5218 13.4537 19.8C12.4596 18.0781 13.0495 15.8764 14.7714 14.8823C16.4932 13.8882 18.695 14.4781 19.6891 16.2Z" fill="#15CE4E"/>
<path d="M32.1598 8.99999C33.154 10.7218 32.564 12.9236 30.8421 13.9177C29.1203 14.9118 26.9186 14.3218 25.9245 12.6C24.9303 10.8781 25.5203 8.67641 27.2421 7.6823C28.964 6.68819 31.1657 7.27814 32.1598 8.99999Z" fill="#15CE4E"/>
<path d="M14.7714 14.8823C19.4562 13.5422 23.7391 11.0694 27.2421 7.6823L30.8421 13.9177C26.1573 15.2578 21.8744 17.7306 18.3714 21.1177L14.7714 14.8823Z" fill="#15CE4E"/>
<path d="M25.9244 23.4C26.9186 21.6782 29.1203 21.0882 30.8421 22.0823C32.564 23.0764 33.1539 25.2782 32.1598 27C31.1657 28.7219 28.964 29.3118 27.2421 28.3177C25.5203 27.3236 24.9303 25.1219 25.9244 23.4Z" fill="#15CE4E"/>
<path d="M13.4537 16.2C14.4478 14.4782 16.6495 13.8882 18.3714 14.8823C20.0932 15.8764 20.6832 18.0782 19.6891 19.8C18.6949 21.5219 16.4932 22.1118 14.7714 21.1177C13.0495 20.1236 12.4596 17.9219 13.4537 16.2Z" fill="#15CE4E"/>
<path d="M0.982927 9.00001C1.97704 7.27816 4.17876 6.68821 5.90062 7.68232C7.62247 8.67643 8.21242 10.8782 7.21831 12.6C6.2242 14.3219 4.02247 14.9118 2.30062 13.9177C0.578765 12.9236 -0.0111858 10.7219 0.982927 9.00001Z" fill="#15CE4E"/>
<path d="M14.7714 21.1177C11.2683 17.7306 6.98545 15.2578 2.30062 13.9177L5.90062 7.68232C9.40364 11.0694 13.6865 13.5422 18.3714 14.8823L14.7714 21.1177Z" fill="#15CE4E"/>
</svg>
