<svg width="22" height="24" viewBox="0 0 22 24" fill="none" xmlns="http://www.w3.org/2000/svg">
<path d="M10.7142 19.2C12.0397 19.2 13.1142 20.2745 13.1142 21.6C13.1142 22.9255 12.0397 24 10.7142 24C9.38875 24 8.31424 22.9255 8.31424 21.6C8.31424 20.2745 9.38875 19.2 10.7142 19.2Z" fill="#15CE4E"/>
<path d="M10.7142 9.6C12.0397 9.6 13.1142 10.6745 13.1142 12C13.1142 13.3255 12.0397 14.4 10.7142 14.4C9.38875 14.4 8.31424 13.3255 8.31424 12C8.31424 10.6745 9.38875 9.6 10.7142 9.6Z" fill="#15CE4E"/>
<path d="M10.7142 0C12.0397 -5.79387e-08 13.1142 1.07452 13.1142 2.4C13.1142 3.72548 12.0397 4.8 10.7142 4.8C9.38875 4.8 8.31424 3.72548 8.31424 2.4C8.31424 1.07452 9.38875 5.79387e-08 10.7142 0Z" fill="#15CE4E"/>
<path d="M8.31424 12C9.10211 8.8485 9.10211 5.5515 8.31424 2.4L13.1142 2.4C12.3264 5.5515 12.3264 8.8485 13.1142 12H8.31424Z" fill="#15CE4E"/>
<path d="M4.47886 15.6C5.1416 16.7479 4.7483 18.2157 3.6004 18.8785C2.4525 19.5412 0.984681 19.1479 0.32194 18C-0.340802 16.8521 0.0524984 15.3843 1.2004 14.7215C2.3483 14.0588 3.81612 14.4521 4.47886 15.6Z" fill="#15CE4E"/>
<path d="M12.7927 10.8C13.4555 11.9479 13.0622 13.4157 11.9142 14.0785C10.7663 14.7412 9.29853 14.3479 8.63579 13.2C7.97305 12.0521 8.36635 10.5843 9.51425 9.92153C10.6622 9.25879 12.13 9.65209 12.7927 10.8Z" fill="#15CE4E"/>
<path d="M21.1066 5.99999C21.7693 7.1479 21.376 8.61571 20.2281 9.27846C19.0802 9.9412 17.6124 9.5479 16.9496 8.39999C16.2869 7.25209 16.6802 5.78428 17.8281 5.12153C18.976 4.45879 20.4438 4.85209 21.1066 5.99999Z" fill="#15CE4E"/>
<path d="M9.51425 9.92153C12.6375 9.0281 15.4928 7.37961 17.8281 5.12153L20.2281 9.27846C17.1049 10.1719 14.2496 11.8204 11.9142 14.0785L9.51425 9.92153Z" fill="#15CE4E"/>
<path d="M16.9496 15.6C17.6124 14.4521 19.0802 14.0588 20.2281 14.7215C21.376 15.3843 21.7693 16.8521 21.1066 18C20.4438 19.1479 18.976 19.5412 17.8281 18.8785C16.6802 18.2157 16.2869 16.7479 16.9496 15.6Z" fill="#15CE4E"/>
<path d="M8.63578 10.8C9.29852 9.6521 10.7663 9.2588 11.9142 9.92155C13.0621 10.5843 13.4554 12.0521 12.7927 13.2C12.13 14.3479 10.6621 14.7412 9.51424 14.0785C8.36634 13.4157 7.97304 11.9479 8.63578 10.8Z" fill="#15CE4E"/>
<path d="M0.321951 6.00001C0.984693 4.8521 2.45251 4.4588 3.60041 5.12155C4.74831 5.78429 5.14161 7.2521 4.47887 8.40001C3.81613 9.54791 2.34831 9.94121 1.20041 9.27847C0.0525099 8.61573 -0.340791 7.14791 0.321951 6.00001Z" fill="#15CE4E"/>
<path d="M9.51424 14.0785C7.1789 11.8204 4.32363 10.1719 1.20041 9.27847L3.60041 5.12155C5.93576 7.37962 8.79102 9.02811 11.9142 9.92155L9.51424 14.0785Z" fill="#15CE4E"/>
</svg>
